<?xml version="1.0" standalone="no"?>
<!DOCTYPE svg PUBLIC "-//W3C//DTD SVG 20010904//EN"
 "http://www.w3.org/TR/2001/REC-SVG-20010904/DTD/svg10.dtd">
<svg version="1.0" xmlns="http://www.w3.org/2000/svg"
 width="1280.000000pt" height="1280.000000pt" viewBox="0 0 1280.000000 1280.000000"
 preserveAspectRatio="xMidYMid meet">
<metadata>
Created by potrace 1.15, written by Peter Selinger 2001-2017
</metadata>
<g transform="translate(0.000000,1280.000000) scale(0.100000,-0.100000)"
fill="#000000" stroke="none">
<path d="M6040 10729 c-471 -33 -871 -135 -1235 -313 -238 -117 -406 -232
-628 -429 l-65 -58 -138 -9 c-817 -57 -1656 -399 -2298 -936 -157 -132 -417
-399 -530 -544 -324 -419 -546 -869 -681 -1385 -207 -786 -186 -1668 56 -2431
215 -678 626 -1338 1111 -1784 525 -483 1109 -794 1749 -930 651 -139 1473
-82 2104 146 348 126 710 314 1043 540 l123 84 157 -109 c567 -394 1152 -688
1556 -781 209 -48 325 -62 567 -67 185 -4 263 -2 367 11 488 62 887 269 1180
611 344 401 548 965 529 1455 -11 279 -65 469 -183 646 -93 141 -218 235 -369
280 -88 26 -240 24 -330 -4 -257 -79 -424 -325 -387 -570 23 -152 137 -323
266 -401 149 -90 307 -76 521 45 55 31 110 57 122 57 38 0 74 -32 100 -90 22
-49 25 -65 20 -127 -7 -88 -35 -174 -96 -296 -198 -395 -507 -645 -947 -766
-153 -41 -251 -55 -431 -61 -262 -9 -518 21 -983 113 -263 52 -382 84 -615
166 -160 57 -651 251 -662 262 -3 3 21 36 54 73 92 106 165 200 256 335 361
529 592 1162 823 2250 l58 276 71 21 c243 71 409 101 595 108 166 6 274 -9
368 -52 117 -54 165 -112 208 -254 31 -102 44 -129 85 -176 58 -66 152 -67
226 -2 103 90 97 262 -13 407 -113 148 -357 275 -607 315 -188 31 -374 19
-717 -45 -85 -16 -155 -28 -157 -26 -11 10 172 859 259 1201 181 719 408 1195
734 1544 l70 74 184 -46 c464 -116 757 -160 1075 -160 335 -1 584 45 811 148
400 183 726 577 829 1005 22 90 29 332 13 450 -13 94 -14 95 -48 114 l-35 18
-90 -31 c-50 -18 -96 -35 -103 -40 -11 -6 -9 -24 7 -89 49 -192 1 -413 -116
-530 -91 -91 -219 -145 -430 -184 -101 -18 -158 -21 -393 -22 -348 -1 -605 27
-1000 110 -425 89 -777 192 -1523 446 -690 234 -853 283 -1182 352 -404 84
-880 115 -1305 85z m60 -413 c315 -54 665 -163 1090 -338 80 -33 354 -154 610
-270 458 -207 718 -315 1057 -438 l171 -62 -106 -91 c-388 -333 -642 -667
-901 -1185 -164 -328 -307 -698 -522 -1352 -78 -239 -147 -441 -153 -449 -9
-11 -35 -13 -129 -8 -66 3 -124 10 -129 15 -6 6 0 51 17 126 57 255 69 376 69
696 0 224 -4 326 -17 424 -52 387 -137 675 -287 976 -149 300 -304 516 -534
745 -219 219 -442 377 -738 524 -313 156 -626 244 -1016 286 -62 7 -63 7 -45
27 30 33 220 156 316 205 181 90 402 158 592 182 50 6 104 13 120 15 17 3 111
3 210 1 136 -2 216 -10 325 -29z m-1451 -661 c389 -56 853 -241 1186 -473 255
-177 509 -447 680 -722 353 -570 475 -1392 305 -2055 -16 -60 -33 -122 -39
-137 l-10 -28 -38 22 c-57 34 -138 118 -167 176 -14 28 -26 56 -26 62 0 5 13
31 29 57 70 115 100 246 82 364 -19 120 -62 180 -148 205 -81 24 -156 4 -206
-55 -65 -78 -92 -257 -68 -451 l12 -95 -74 -71 c-168 -161 -382 -272 -630
-326 -87 -19 -133 -22 -307 -22 -228 0 -326 15 -497 75 -307 108 -575 330
-788 649 -169 254 -265 504 -321 840 -21 129 -30 486 -15 632 48 465 227 884
550 1285 l66 83 159 0 c89 0 205 -7 265 -15z m-805 -27 c-5 -7 -34 -52 -66
-100 -133 -200 -252 -447 -326 -679 -75 -234 -109 -432 -119 -689 -42 -1095
556 -2024 1457 -2265 245 -65 547 -72 810 -19 250 51 526 190 706 356 l45 41
17 -24 c53 -77 173 -180 266 -229 25 -14 46 -29 46 -34 0 -19 -113 -263 -165
-358 -243 -438 -601 -823 -995 -1068 -47 -29 -160 -90 -251 -135 -459 -225
-895 -291 -1387 -209 -104 17 -179 24 -222 22 -119 -9 -185 -64 -196 -165 -12
-94 26 -170 100 -204 54 -24 123 -24 326 2 259 33 495 16 776 -56 183 -47 299
-92 519 -200 211 -104 414 -219 674 -380 l172 -106 -95 -102 c-171 -185 -371
-355 -591 -502 -283 -189 -572 -310 -890 -374 -151 -30 -276 -41 -468 -41
-589 0 -1115 160 -1630 496 -584 382 -1004 860 -1335 1519 -395 790 -492 1751
-266 2649 71 282 163 530 295 796 282 565 645 999 1161 1386 468 350 957 567
1484 658 169 30 157 29 148 14z m3364 -3773 c34 0 62 -1 62 -2 0 -19 -255
-750 -343 -983 -171 -452 -402 -953 -605 -1310 -101 -179 -88 -167 -148 -133
-95 55 -950 471 -1077 524 -70 29 -126 53 -125 55 2 1 98 33 213 72 319 107
474 180 702 331 170 112 308 226 469 386 205 204 324 361 432 573 69 133 154
335 207 490 3 9 22 10 77 5 40 -5 101 -8 136 -8z"/>
</g>
</svg>
