<?xml version="1.0" standalone="no"?>
<!DOCTYPE svg PUBLIC "-//W3C//DTD SVG 20010904//EN"
 "http://www.w3.org/TR/2001/REC-SVG-20010904/DTD/svg10.dtd">
<svg version="1.0" xmlns="http://www.w3.org/2000/svg"
 width="1280.000000pt" height="1118.000000pt" viewBox="0 0 1280.000000 1118.000000"
 preserveAspectRatio="xMidYMid meet">
<metadata>
Created by potrace 1.15, written by Peter Selinger 2001-2017
</metadata>
<g transform="translate(0.000000,1118.000000) scale(0.100000,-0.100000)"
fill="#f44336" stroke="none">
<path d="M6030 11169 c-1368 -81 -2684 -632 -3703 -1549 -718 -645 -1260
-1428 -1612 -2325 -163 -416 -287 -881 -350 -1317 -55 -385 -56 -415 -64
-1475 l-7 -992 -36 -39 c-96 -106 -182 -271 -226 -430 l-26 -97 -4 -740 c-3
-653 -1 -752 13 -840 65 -390 333 -705 702 -828 59 -20 137 -40 173 -44 l65
-8 7 -83 c16 -194 155 -353 341 -392 37 -7 278 -10 768 -8 713 3 714 3 769 25
113 46 203 139 252 262 l23 56 3 1765 c2 1204 -1 1787 -8 1834 -22 143 -107
259 -238 323 l-76 38 -740 3 c-825 3 -791 5 -903 -67 -113 -73 -181 -191 -190
-333 -5 -72 -8 -78 -28 -78 l-22 0 -6 667 c-8 776 0 993 49 1348 78 567 262
1161 519 1677 91 181 103 203 203 373 662 1117 1730 1978 2972 2397 906 305
1919 366 2860 172 688 -142 1353 -420 1935 -809 811 -541 1445 -1262 1879
-2135 262 -528 434 -1076 515 -1645 54 -375 62 -593 54 -1383 l-6 -662 -22 0
c-20 0 -23 6 -28 78 -9 142 -77 260 -190 333 -112 72 -78 70 -903 67 l-740 -3
-76 -38 c-131 -64 -216 -180 -238 -323 -7 -47 -10 -631 -8 -1834 l3 -1765 23
-56 c49 -123 139 -216 252 -262 55 -22 56 -22 769 -25 490 -2 731 1 768 8 186
39 325 198 341 392 l7 83 60 7 c201 25 429 140 586 297 158 159 256 352 294
578 14 86 16 192 13 838 l-4 740 -26 97 c-43 158 -130 324 -224 428 l-33 36
-6 870 c-6 914 -13 1117 -45 1407 -201 1778 -1202 3403 -2706 4392 -1102 725
-2404 1073 -3724 994z"/>
</g>
</svg>
