<?xml version="1.0" standalone="no"?>
<!DOCTYPE svg PUBLIC "-//W3C//DTD SVG 20010904//EN"
 "http://www.w3.org/TR/2001/REC-SVG-20010904/DTD/svg10.dtd">
<svg version="1.0" xmlns="http://www.w3.org/2000/svg"
 width="3592.000000pt" height="5333.000000pt" viewBox="0 0 3592.000000 5333.000000"
 preserveAspectRatio="xMidYMid meet">

<g transform="translate(0.000000,5333.000000) scale(0.100000,-0.100000)"
fill="#000000" stroke="none">
<path d="M12300 49528 c-1 -4267 -16 -10332 -26 -10450 -4 -48 -11 -78 -18
-78 -7 0 -45 32 -86 71 -108 103 -196 141 -285 125 -102 -19 -101 -83 8 -387
25 -70 51 -155 58 -190 22 -121 38 -167 68 -195 60 -56 66 -85 52 -262 -25
-319 40 -1092 144 -1722 30 -184 43 -290 56 -465 16 -225 28 -1438 29 -2892
l0 -1351 -84 -244 c-105 -306 -184 -517 -253 -682 -63 -150 -143 -311 -169
-344 l-19 -22 -135 19 c-318 47 -754 87 -1475 136 -1584 109 -1973 170 -2690
422 -449 158 -711 219 -1085 254 -69 6 -318 14 -554 18 l-430 6 -37 90 c-52
125 -69 249 -69 506 0 216 15 350 45 410 10 19 97 113 195 209 191 188 241
250 371 460 127 205 169 240 288 240 245 0 470 227 536 540 20 93 19 269 0
345 -40 154 -123 271 -241 340 -103 60 -132 89 -150 150 -29 103 8 219 183
570 176 351 236 521 303 859 171 859 165 1621 -14 1991 -119 244 -375 508
-652 671 -356 209 -942 316 -1279 234 -121 -30 -238 -24 -555 29 -339 56 -473
71 -711 78 -506 15 -984 -80 -1374 -271 -225 -111 -416 -249 -629 -456 -193
-188 -304 -337 -418 -564 -142 -283 -238 -568 -529 -1581 -287 -996 -320
-1116 -384 -1385 -310 -1301 -354 -2433 -139 -3603 69 -380 134 -639 295
-1173 54 -183 99 -339 99 -347 0 -8 -25 -75 -56 -148 -98 -238 -183 -541 -263
-944 -108 -545 -161 -1070 -192 -1923 -17 -461 -7 -1394 19 -1782 30 -441 40
-692 52 -1250 13 -627 28 -1038 41 -1115 5 -33 25 -96 44 -140 109 -256 197
-845 465 -3120 273 -2319 328 -2704 510 -3545 178 -824 208 -1055 197 -1535
-6 -266 -19 -456 -62 -905 -58 -606 -65 -693 -65 -840 -1 -302 35 -373 260
-522 172 -114 204 -153 281 -339 27 -67 72 -156 99 -198 84 -131 203 -227 301
-246 45 -8 110 9 134 35 47 52 88 4 225 -256 112 -212 181 -319 232 -357 76
-57 183 -62 226 -11 23 26 24 33 19 123 -3 70 -15 128 -41 216 -127 420 -187
715 -233 1140 -17 164 -23 737 -8 806 7 29 12 21 106 -143 116 -201 210 -333
312 -436 164 -167 204 -136 193 148 -13 361 -124 993 -287 1643 -22 87 -91
337 -153 555 -239 834 -353 1313 -376 1580 -21 249 -31 709 -40 1842 -16 1997
-37 2288 -270 3722 -91 558 -119 784 -155 1230 -18 223 -21 476 -7 490 23 23
926 -906 1442 -1482 1033 -1154 1622 -1992 1941 -2763 166 -403 233 -760 279
-1502 60 -968 63 -997 141 -1355 128 -581 319 -1063 574 -1445 135 -203 241
-332 414 -506 378 -377 775 -598 1394 -775 201 -57 375 -96 527 -116 132 -18
1111 -18 1305 0 337 31 586 72 991 161 451 100 599 120 965 128 l256 6 6
-3978 c4 -2188 7 -4947 7 -6130 0 -1183 3 -2490 7 -2903 l6 -752 579 0 578 0
0 6733 c0 3702 3 6816 7 6918 l6 186 81 7 c189 16 1178 149 1616 217 350 55
911 173 1400 294 896 223 1758 502 2359 764 102 45 190 81 196 81 17 0 159
-311 211 -463 64 -187 141 -456 228 -792 125 -483 193 -689 311 -930 82 -169
196 -344 315 -485 283 -335 459 -572 622 -839 114 -187 137 -220 187 -274 52
-56 86 -71 161 -71 152 -1 222 91 267 349 27 158 24 528 -6 702 -23 138 -63
297 -124 493 -97 317 -208 964 -253 1484 -18 211 -16 424 4 448 15 18 40 15
482 -67 840 -156 1399 -207 2270 -207 860 0 1498 63 2165 213 570 129 1102
320 1753 628 668 316 1034 398 1419 317 168 -36 276 -87 413 -196 194 -155
380 -261 545 -313 179 -56 314 -73 690 -87 149 -5 309 -16 356 -25 242 -42
792 -291 1288 -583 324 -191 338 -198 376 -179 36 17 75 60 75 82 0 33 -41 65
-245 187 -382 230 -966 623 -1100 741 -49 43 -47 45 75 112 219 120 581 276
740 318 221 60 310 72 535 72 213 0 239 -3 587 -55 370 -56 637 -59 881 -9
135 27 211 58 357 143 69 41 204 116 301 168 353 191 535 335 679 540 104 147
161 285 186 451 20 132 25 553 7 613 -28 91 -72 105 -356 111 -333 8 -614 -19
-1182 -112 -181 -30 -442 -70 -580 -89 -1841 -257 -4954 -505 -5720 -457 -809
52 -3236 390 -4170 582 -778 160 -1207 200 -2455 229 -250 6 -482 13 -516 16
l-60 5 -13 392 c-6 216 -18 561 -26 767 -21 534 -80 2235 -115 3325 -16 512
-34 1049 -40 1195 -41 1077 -97 1441 -302 1965 -255 650 -721 1149 -1317 1410
-302 131 -625 201 -986 211 -710 21 -1232 -194 -1850 -763 -558 -513 -1119
-1255 -1650 -2183 -213 -371 -321 -579 -702 -1340 l-382 -765 0 2995 c0 1647
4 3147 9 3333 11 384 22 514 56 642 132 494 228 1018 293 1595 90 797 115
2587 56 3905 -9 182 -18 501 -22 710 -8 538 8 697 102 975 25 74 52 164 60
200 27 128 38 317 32 554 -7 256 -21 380 -72 620 -45 215 -69 381 -100 678
-27 266 -40 345 -80 496 -54 204 -134 319 -262 379 l-73 34 0 7014 0 7015
-580 0 -580 0 0 -3802z m-5899 -15100 c24 -17 78 -65 120 -108 179 -180 221
-392 124 -629 -42 -102 -131 -236 -193 -292 -85 -75 -273 -146 -366 -137 -39
4 -39 20 -4 138 14 47 51 207 83 355 97 460 161 705 184 705 4 0 28 -14 52
-32z m3227 -6164 c296 -70 698 -122 1127 -144 277 -14 896 -12 1230 5 160 8
296 15 303 15 9 0 12 -853 12 -4234 l0 -4233 -341 -374 c-187 -206 -343 -375
-347 -376 -4 -2 -68 92 -142 209 -380 595 -849 1213 -1499 1973 -450 527 -601
762 -720 1122 -114 341 -159 655 -211 1473 -60 930 -129 1278 -315 1595 l-64
110 232 7 c385 10 521 36 721 134 150 74 252 149 392 289 238 237 368 447 534
860 40 99 99 232 131 295 69 133 88 210 70 278 -23 85 -127 169 -816 663 -501
359 -504 362 -505 372 0 10 16 7 208 -39z m7964 -7527 c82 -163 275 -489 513
-867 566 -899 786 -1298 802 -1455 4 -43 0 -59 -30 -115 -42 -80 -73 -176 -81
-254 -8 -78 -18 -95 -53 -89 -15 3 -217 42 -448 89 -505 100 -651 126 -1120
198 -369 57 -515 83 -524 91 -9 10 41 159 164 489 263 704 685 1969 685 2053
0 33 20 2 92 -140z"/>
</g>
</svg>
